<?xml version="1.0" encoding="utf-8"?>
<!-- Generator: Adobe Illustrator 16.0.0, SVG Export Plug-In . SVG Version: 6.00 Build 0)  -->
<!DOCTYPE svg PUBLIC "-//W3C//DTD SVG 1.1//EN" "http://www.w3.org/Graphics/SVG/1.1/DTD/svg11.dtd">
<svg version="1.1" id="Layer_1" xmlns="http://www.w3.org/2000/svg" xmlns:xlink="http://www.w3.org/1999/xlink" x="0px" y="0px"
	 width="50px" height="50px" viewBox="0 0 50 50" enable-background="new 0 0 50 50" xml:space="preserve">
<g>
	<g>
		<g>
			<path fill-rule="evenodd" clip-rule="evenodd" fill="#FFFFFF" stroke="#A6C144" stroke-miterlimit="10" d="M30.343,47.033
				c0,1.214-0.794,2.197-1.774,2.197H14.38c-0.979,0-1.774-0.983-1.774-2.197V18.49c0-1.213,0.794-2.196,1.774-2.196h14.188
				c0.98,0,1.774,0.983,1.774,2.196V47.033z"/>
			<circle fill-rule="evenodd" clip-rule="evenodd" fill="#A6C144" cx="21.475" cy="45.61" r="1.81"/>
			<line fill="none" stroke="#A6C144" stroke-miterlimit="10" x1="18.036" y1="18.783" x2="25.275" y2="18.783"/>
		</g>
		<g>
			<rect x="15.526" y="21.503" fill="#04863A" width="12.26" height="20.636"/>
			<g>
				<path fill="#FFFFFF" d="M21.095,39.874v-1.591c-0.795-0.1-1.441-0.278-1.94-0.535c-0.497-0.256-0.927-0.67-1.29-1.241
					c-0.363-0.571-0.573-1.27-0.632-2.095l1.599-0.3c0.124,0.854,0.342,1.481,0.654,1.882c0.447,0.566,0.984,0.881,1.608,0.945
					v-5.063c-0.654-0.124-1.322-0.376-2.005-0.76c-0.507-0.283-0.897-0.675-1.171-1.175c-0.274-0.501-0.411-1.07-0.411-1.706
					c0-1.132,0.4-2.047,1.201-2.749c0.536-0.471,1.332-0.76,2.386-0.866v-0.76h0.937v0.76c0.924,0.089,1.658,0.36,2.201,0.813
					c0.695,0.578,1.113,1.37,1.254,2.377l-1.643,0.247c-0.095-0.624-0.291-1.104-0.589-1.437c-0.296-0.333-0.705-0.551-1.223-0.658
					v4.585c0.801,0.201,1.331,0.357,1.591,0.469c0.495,0.219,0.898,0.484,1.211,0.797c0.312,0.312,0.553,0.683,0.719,1.112
					c0.168,0.431,0.253,0.896,0.253,1.396c0,1.103-0.352,2.021-1.053,2.758s-1.608,1.131-2.722,1.183v1.609H21.095z M21.095,25.947
					c-0.619,0.094-1.106,0.341-1.462,0.743c-0.356,0.399-0.534,0.874-0.534,1.422c0,0.543,0.151,0.996,0.455,1.361
					c0.304,0.366,0.818,0.656,1.542,0.874V25.947z M22.032,36.939c0.619-0.076,1.129-0.344,1.534-0.804
					c0.403-0.46,0.604-1.027,0.604-1.705c0-0.577-0.143-1.042-0.428-1.392c-0.286-0.352-0.856-0.664-1.71-0.941V36.939z"/>
			</g>
		</g>
		<g>
			<rect x="24.89" y="19.994" fill="#04863A" stroke="#FFFFFF" stroke-miterlimit="10" width="5.792" height="5.305"/>
			<g>
				<path fill="#FFFFFF" d="M27.568,24.446v-0.368c-0.184-0.024-0.333-0.065-0.448-0.124c-0.115-0.06-0.216-0.155-0.3-0.287
					c-0.083-0.132-0.131-0.294-0.146-0.485l0.37-0.069c0.027,0.197,0.079,0.342,0.151,0.435c0.104,0.131,0.228,0.204,0.372,0.219
					v-1.172c-0.151-0.029-0.306-0.087-0.465-0.176c-0.116-0.066-0.206-0.156-0.271-0.273c-0.063-0.115-0.096-0.247-0.096-0.394
					c0-0.261,0.095-0.474,0.279-0.636c0.124-0.109,0.309-0.177,0.552-0.201v-0.176h0.218v0.176c0.214,0.021,0.383,0.083,0.509,0.189
					c0.161,0.133,0.258,0.316,0.29,0.55l-0.38,0.057c-0.022-0.144-0.067-0.255-0.137-0.332c-0.068-0.077-0.163-0.128-0.282-0.153
					v1.062c0.184,0.046,0.306,0.083,0.367,0.108c0.114,0.051,0.208,0.112,0.281,0.184c0.071,0.072,0.127,0.158,0.166,0.258
					c0.038,0.099,0.058,0.207,0.058,0.323c0,0.255-0.081,0.468-0.242,0.638c-0.163,0.171-0.373,0.262-0.63,0.274v0.373H27.568z
					 M27.568,21.223c-0.144,0.022-0.256,0.08-0.339,0.172c-0.083,0.093-0.123,0.202-0.123,0.329c0,0.126,0.035,0.23,0.104,0.314
					c0.07,0.085,0.189,0.153,0.357,0.203V21.223z M27.786,23.767c0.142-0.018,0.261-0.08,0.355-0.187
					c0.093-0.105,0.139-0.237,0.139-0.394c0-0.133-0.032-0.241-0.1-0.322c-0.065-0.081-0.198-0.154-0.395-0.217V23.767z"/>
			</g>
		</g>
	</g>
	<g>
		<g>
			<rect x="32.73" y="14.527" fill="#A6C144" width="5.249" height="5.792"/>
			<g>
				<path fill="#FFFFFF" d="M35.935,15.692c-0.348,0-0.639,0.083-0.876,0.252c-0.141,0.099-0.268,0.24-0.381,0.422
					c-0.117,0.189-0.186,0.367-0.205,0.538h2.117l-0.084,0.416h-2.084c-0.002,0.043-0.002,0.085-0.002,0.124
					c0,0.159,0,0.255,0.002,0.286h2.001l-0.089,0.416h-1.846c0.086,0.474,0.295,0.811,0.626,1.01
					c0.239,0.142,0.496,0.213,0.773,0.213c0.388,0,0.689-0.101,0.907-0.304v0.64c-0.259,0.12-0.545,0.18-0.856,0.18
					c-0.937,0-1.57-0.39-1.897-1.167c-0.066-0.157-0.124-0.348-0.171-0.572h-0.476l0.088-0.416h0.325
					c-0.007-0.087-0.009-0.182-0.009-0.283c0-0.041,0.001-0.083,0.002-0.127h-0.406l0.088-0.416h0.359
					c0.129-0.675,0.463-1.16,1.002-1.454c0.334-0.182,0.701-0.273,1.104-0.273c0.385,0,0.709,0.083,0.972,0.252l-0.124,0.578
					C36.541,15.796,36.256,15.692,35.935,15.692z"/>
			</g>
		</g>
		<g>
			<rect x="28.658" y="9.731" fill="#A6C144" width="4.072" height="4.162"/>
			<g>
				<path fill="#FFFFFF" d="M30.379,11.658h0.628v0.294H30.44c0.026,0.059,0.038,0.118,0.038,0.176c0,0.115-0.027,0.237-0.082,0.366
					c-0.056,0.128-0.146,0.26-0.272,0.394c0.104-0.028,0.2-0.043,0.287-0.043c0.109,0,0.233,0.016,0.372,0.049
					c0.228,0.054,0.383,0.082,0.465,0.082c0.098,0,0.224-0.037,0.381-0.112l0.115,0.329c-0.122,0.052-0.216,0.086-0.283,0.102
					c-0.066,0.016-0.134,0.024-0.2,0.024c-0.056,0-0.113-0.006-0.168-0.017c-0.036-0.006-0.122-0.03-0.26-0.072
					c-0.135-0.042-0.223-0.067-0.263-0.075c-0.063-0.01-0.126-0.016-0.188-0.016c-0.096,0-0.197,0.017-0.305,0.05
					c-0.109,0.033-0.207,0.079-0.296,0.135l-0.138-0.344c0.128-0.07,0.235-0.171,0.324-0.302s0.134-0.291,0.134-0.479
					c0-0.081-0.012-0.164-0.034-0.247h-0.39v-0.294h0.307c-0.044-0.149-0.071-0.257-0.083-0.326c-0.013-0.068-0.019-0.135-0.019-0.2
					c0-0.276,0.102-0.492,0.306-0.647c0.165-0.123,0.364-0.185,0.598-0.185c0.24,0,0.438,0.065,0.594,0.198
					c0.156,0.132,0.253,0.317,0.288,0.556l-0.356,0.054c-0.021-0.159-0.079-0.284-0.178-0.376s-0.217-0.138-0.355-0.138
					c-0.147,0-0.27,0.047-0.367,0.143c-0.098,0.095-0.147,0.209-0.147,0.343C30.265,11.228,30.304,11.42,30.379,11.658z"/>
			</g>
		</g>
		<g>
			<rect x="34.632" y="7.559" fill="#008034" width="3.71" height="4.253"/>
			<g>
				<path fill="#FFFFFF" d="M36.268,11.556v-0.753h-0.961v-0.321h0.961v-0.33h-0.961V9.808h0.79l-0.939-1.646h0.463l0.671,1.194
					c0.074,0.136,0.134,0.254,0.176,0.356c0.036-0.081,0.099-0.206,0.189-0.376l0.635-1.173h0.494l-0.937,1.646h0.789v0.343h-0.953
					v0.33h0.953v0.321h-0.953v0.753H36.268z"/>
			</g>
		</g>
		<g>
			<rect x="31.825" y="3.306" fill="#A6C144" width="2.807" height="3.348"/>
			<g>
				<path fill="#FFFFFF" d="M32.811,5.119v0.243h0.995v0.234h-0.995v0.625h-0.329V5.596h-0.169V5.362h0.169V5.119h-0.169V4.833
					h0.169V3.738h0.778c0.223,0,0.391,0.023,0.505,0.068c0.115,0.043,0.207,0.123,0.276,0.235c0.068,0.113,0.104,0.238,0.104,0.375
					c0,0.138-0.025,0.252-0.078,0.342c-0.05,0.091-0.116,0.163-0.201,0.216c-0.083,0.053-0.181,0.091-0.289,0.112
					c-0.11,0.022-0.222,0.032-0.339,0.032H32.811z M33.237,4.833c0.076,0,0.148-0.005,0.217-0.018
					c0.069-0.011,0.13-0.033,0.182-0.064c0.052-0.033,0.094-0.074,0.124-0.128s0.046-0.123,0.046-0.208
					c0-0.074-0.015-0.136-0.042-0.187c-0.027-0.051-0.065-0.093-0.114-0.125c-0.047-0.032-0.104-0.056-0.167-0.069
					c-0.065-0.015-0.134-0.022-0.21-0.022h-0.462v0.821H33.237z"/>
			</g>
		</g>
	</g>
</g>
</svg>
