<?xml version="1.0" encoding="utf-8"?>
<!-- Generator: Adobe Illustrator 16.0.0, SVG Export Plug-In . SVG Version: 6.00 Build 0)  -->
<!DOCTYPE svg PUBLIC "-//W3C//DTD SVG 1.1//EN" "http://www.w3.org/Graphics/SVG/1.1/DTD/svg11.dtd">
<svg version="1.1" id="Layer_1" xmlns="http://www.w3.org/2000/svg" xmlns:xlink="http://www.w3.org/1999/xlink" x="0px" y="0px"
	 width="400px" height="400px" viewBox="0 0 400 400" enable-background="new 0 0 400 400" xml:space="preserve">
<g>
	<text transform="matrix(1 0 0 1 10.8438 278.9053)" fill="#FFFFFF" font-family="'Telegrafico'" font-size="48.2897">Gamblers Unite</text>
	<g>
		<g>
			<g>
				<path fill-rule="evenodd" clip-rule="evenodd" fill="#FFFFFF" stroke="#A6C144" stroke-miterlimit="10" d="M217.91,206.896
					c0,3.006-1.966,5.441-4.395,5.441h-35.151c-2.426,0-4.395-2.436-4.395-5.441V136.18c0-3.005,1.969-5.439,4.395-5.439h35.151
					c2.429,0,4.395,2.434,4.395,5.439V206.896z"/>
				<circle fill-rule="evenodd" clip-rule="evenodd" fill="#A6C144" cx="195.941" cy="203.37" r="4.484"/>
				<line fill="none" stroke="#A6C144" stroke-miterlimit="10" x1="187.421" y1="136.906" x2="205.355" y2="136.906"/>
			</g>
			<g>
				<rect x="181.204" y="143.644" fill="#04863A" width="30.373" height="51.127"/>
				<g>
					<path fill="#FFFFFF" d="M195,189.158v-3.94c-1.97-0.248-3.571-0.689-4.806-1.326c-1.233-0.633-2.298-1.658-3.196-3.075
						c-0.897-1.416-1.419-3.144-1.564-5.189l3.961-0.744c0.307,2.117,0.846,3.672,1.621,4.664c1.109,1.401,2.438,2.182,3.984,2.342
						v-12.545c-1.62-0.307-3.277-0.934-4.969-1.883c-1.256-0.701-2.222-1.671-2.902-2.911c-0.678-1.24-1.018-2.65-1.018-4.226
						c0-2.803,0.993-5.071,2.977-6.809c1.328-1.168,3.298-1.883,5.912-2.146v-1.882h2.321v1.882c2.291,0.22,4.108,0.891,5.452,2.014
						c1.721,1.431,2.758,3.394,3.108,5.89l-4.072,0.613c-0.235-1.546-0.72-2.734-1.458-3.558c-0.735-0.825-1.748-1.368-3.031-1.631
						v11.362c1.984,0.498,3.297,0.883,3.94,1.16c1.227,0.542,2.226,1.198,3,1.973c0.773,0.774,1.369,1.692,1.783,2.757
						c0.416,1.066,0.626,2.22,0.626,3.461c0,2.729-0.87,5.006-2.606,6.831c-1.738,1.826-3.985,2.802-6.743,2.931v3.986H195z
						 M195,154.655c-1.533,0.233-2.739,0.846-3.624,1.839c-0.883,0.991-1.324,2.167-1.324,3.524c0,1.343,0.375,2.466,1.127,3.372
						c0.751,0.905,2.024,1.627,3.82,2.166V154.655z M197.321,181.89c1.533-0.188,2.798-0.854,3.798-1.992
						c1.001-1.139,1.5-2.547,1.5-4.225c0-1.431-0.354-2.582-1.062-3.449c-0.708-0.869-2.121-1.644-4.236-2.332V181.89z"/>
				</g>
			</g>
			<g>
				<rect x="204.402" y="139.905" fill="#04863A" stroke="#FFFFFF" stroke-miterlimit="10" width="14.348" height="13.143"/>
				<g>
					<path fill="#FFFFFF" d="M211.038,150.935v-0.913c-0.455-0.058-0.827-0.159-1.112-0.306c-0.284-0.147-0.533-0.384-0.739-0.711
						c-0.209-0.329-0.329-0.729-0.361-1.201l0.916-0.172c0.069,0.488,0.196,0.849,0.374,1.079c0.258,0.324,0.564,0.504,0.923,0.542
						v-2.904c-0.376-0.071-0.758-0.216-1.151-0.435c-0.291-0.164-0.512-0.388-0.67-0.675c-0.157-0.287-0.237-0.613-0.237-0.978
						c0-0.647,0.232-1.173,0.691-1.576c0.306-0.271,0.763-0.437,1.367-0.496v-0.436h0.539v0.436
						c0.527,0.051,0.948,0.206,1.261,0.466c0.398,0.331,0.639,0.784,0.72,1.363l-0.943,0.142c-0.054-0.357-0.167-0.632-0.337-0.824
						c-0.171-0.19-0.404-0.317-0.7-0.378v2.631c0.457,0.115,0.76,0.205,0.909,0.269c0.284,0.125,0.516,0.275,0.695,0.457
						c0.178,0.178,0.316,0.39,0.412,0.637c0.096,0.247,0.145,0.513,0.145,0.801c0,0.632-0.201,1.159-0.602,1.581
						c-0.402,0.422-0.924,0.649-1.56,0.678v0.923H211.038z M211.038,142.951c-0.355,0.054-0.633,0.196-0.84,0.424
						c-0.204,0.23-0.305,0.502-0.305,0.814c0,0.312,0.087,0.571,0.26,0.782c0.174,0.21,0.47,0.377,0.885,0.501V142.951z
						 M211.577,149.253c0.352-0.043,0.646-0.197,0.88-0.462c0.23-0.263,0.344-0.587,0.344-0.978c0-0.33-0.081-0.597-0.244-0.798
						c-0.164-0.2-0.492-0.381-0.979-0.54V149.253z"/>
				</g>
			</g>
		</g>
		<g>
			<g>
				<rect x="223.827" y="126.362" fill="#A6C144" width="13.003" height="14.348"/>
				<g>
					<path fill="#FFFFFF" d="M231.766,129.248c-0.863,0-1.585,0.208-2.171,0.623c-0.348,0.247-0.664,0.596-0.944,1.047
						c-0.289,0.468-0.458,0.911-0.509,1.332h5.248l-0.209,1.029h-5.162c-0.005,0.108-0.007,0.211-0.007,0.308
						c0,0.396,0.002,0.632,0.007,0.709h4.955l-0.218,1.03h-4.576c0.215,1.173,0.733,2.008,1.555,2.5
						c0.59,0.354,1.229,0.531,1.915,0.531c0.958,0,1.707-0.252,2.246-0.754v1.584c-0.643,0.298-1.35,0.447-2.122,0.447
						c-2.32,0-3.887-0.965-4.701-2.892c-0.166-0.39-0.305-0.862-0.423-1.416h-1.177l0.215-1.03h0.808
						c-0.017-0.217-0.023-0.45-0.023-0.702c0-0.102,0.003-0.207,0.007-0.315h-1.006l0.215-1.029h0.893
						c0.318-1.672,1.146-2.873,2.483-3.601c0.825-0.451,1.735-0.678,2.733-0.678c0.952,0,1.756,0.208,2.407,0.623l-0.309,1.431
						C233.27,129.507,232.561,129.248,231.766,129.248z"/>
				</g>
			</g>
			<g>
				<rect x="213.738" y="114.48" fill="#A6C144" width="10.089" height="10.313"/>
				<g>
					<path fill="#FFFFFF" d="M218.002,119.253h1.554v0.731h-1.4c0.062,0.145,0.093,0.29,0.093,0.435
						c0,0.286-0.068,0.588-0.203,0.907c-0.139,0.319-0.361,0.644-0.675,0.977c0.257-0.072,0.497-0.108,0.711-0.108
						c0.272,0,0.579,0.041,0.921,0.123c0.566,0.134,0.949,0.203,1.15,0.203c0.243,0,0.557-0.093,0.947-0.277l0.284,0.813
						c-0.303,0.129-0.534,0.213-0.702,0.252c-0.166,0.04-0.33,0.06-0.494,0.06c-0.141,0-0.279-0.014-0.42-0.041
						c-0.088-0.016-0.301-0.075-0.641-0.179c-0.335-0.104-0.553-0.165-0.652-0.186c-0.154-0.026-0.311-0.039-0.465-0.039
						c-0.235,0-0.487,0.041-0.756,0.123c-0.269,0.082-0.512,0.194-0.73,0.335l-0.342-0.853c0.316-0.175,0.584-0.424,0.804-0.748
						s0.33-0.719,0.33-1.185c0-0.201-0.026-0.405-0.085-0.612h-0.965v-0.731h0.76c-0.11-0.367-0.176-0.636-0.207-0.805
						c-0.03-0.169-0.045-0.334-0.045-0.496c0-0.684,0.254-1.218,0.758-1.603c0.41-0.306,0.902-0.459,1.482-0.459
						c0.595,0,1.084,0.165,1.469,0.491c0.389,0.328,0.627,0.786,0.715,1.378l-0.883,0.133c-0.05-0.394-0.196-0.706-0.441-0.932
						c-0.244-0.227-0.537-0.34-0.88-0.34c-0.366,0-0.669,0.117-0.91,0.353c-0.243,0.236-0.362,0.518-0.362,0.85
						C217.721,118.188,217.814,118.666,218.002,119.253z"/>
				</g>
			</g>
			<g>
				<rect x="228.535" y="109.1" fill="#008034" width="9.192" height="10.537"/>
				<g>
					<path fill="#FFFFFF" d="M232.59,119.002v-1.866h-2.38v-0.795h2.38v-0.82h-2.38v-0.849h1.955l-2.327-4.077h1.146l1.663,2.959
						c0.185,0.336,0.332,0.63,0.436,0.882c0.089-0.202,0.244-0.512,0.47-0.934l1.572-2.907h1.227l-2.322,4.077h1.955v0.849h-2.361
						v0.82h2.361v0.795h-2.361v1.866H232.59z"/>
				</g>
			</g>
			<g>
				<rect x="221.586" y="98.563" fill="#A6C144" width="6.949" height="8.295"/>
				<g>
					<path fill="#FFFFFF" d="M224.025,103.053v0.604h2.465v0.581h-2.465v1.548h-0.814v-1.548h-0.42v-0.581h0.42v-0.604h-0.42v-0.705
						h0.42v-2.715h1.928c0.551,0,0.969,0.057,1.25,0.169c0.284,0.109,0.513,0.303,0.684,0.583c0.172,0.279,0.257,0.589,0.257,0.927
						c0,0.342-0.063,0.624-0.19,0.848c-0.125,0.224-0.291,0.403-0.5,0.535s-0.448,0.226-0.717,0.278
						c-0.271,0.053-0.551,0.08-0.838,0.08H224.025z M225.084,102.349c0.188,0,0.366-0.015,0.537-0.044
						c0.17-0.028,0.318-0.083,0.447-0.161c0.129-0.079,0.232-0.184,0.307-0.317c0.076-0.133,0.115-0.305,0.115-0.514
						c0-0.182-0.035-0.335-0.104-0.461c-0.067-0.125-0.162-0.229-0.283-0.309c-0.118-0.078-0.258-0.137-0.416-0.173
						c-0.159-0.036-0.33-0.055-0.517-0.055h-1.146v2.036H225.084z"/>
				</g>
			</g>
		</g>
	</g>
</g>
</svg>
